<svg height="85" node-id="1" sillyvg="true" template-height="85" template-width="85" version="1.1" viewBox="0 0 85 85" width="85" xmlns="http://www.w3.org/2000/svg" xmlns:xlink="http://www.w3.org/1999/xlink"><defs node-id="83"><linearGradient gradientUnits="objectBoundingBox" id="XMLID_5_" node-id="16" spreadMethod="pad" x1="15.2996" x2="68.0094" y1="40.0816" y2="40.0816"><stop offset="0.272" stop-color="#29a1ff"/><stop offset="0.4961" stop-color="#51dcff"/><stop offset="0.8428" stop-color="#51dcff"/><stop offset="1" stop-color="#3f3cff"/></linearGradient><linearGradient gradientUnits="objectBoundingBox" id="XMLID_7_" node-id="26" spreadMethod="pad" x1="15.2996" x2="68.0094" y1="34.8869" y2="34.8869"><stop offset="0.272" stop-color="#29a1ff"/><stop offset="0.4961" stop-color="#51dcff"/><stop offset="0.8428" stop-color="#51dcff"/><stop offset="1" stop-color="#3f3cff"/></linearGradient><linearGradient gradientUnits="objectBoundingBox" id="XMLID_9_" node-id="36" spreadMethod="pad" x1="15.9797" x2="67.3293" y1="29.014" y2="29.014"><stop offset="0.272" stop-color="#29a1ff"/><stop offset="0.4961" stop-color="#51dcff"/><stop offset="0.8428" stop-color="#51dcff"/><stop offset="1" stop-color="#3f3cff"/></linearGradient><linearGradient gradientUnits="objectBoundingBox" id="XMLID_12_" node-id="45" spreadMethod="pad" x1="21.2985" x2="62.0092" y1="23.1468" y2="23.1468"><stop offset="0.4961" stop-color="#51dcff"/><stop offset="0.8428" stop-color="#51dcff"/><stop offset="1" stop-color="#3f3cff"/></linearGradient><linearGradient gradientUnits="objectBoundingBox" id="XMLID_21_" node-id="73" spreadMethod="pad" x1="74.9847" x2="9.825" y1="47.6726" y2="47.6726"><stop offset="0" stop-color="#ea39ff"/><stop offset="0.3953" stop-color="#54ffff"/><stop offset="0.6861" stop-color="#c4e6ff"/></linearGradient><radialGradient cx="67.4323" cy="74.8704" fx="67.4323" fy="74.8704" gradientUnits="objectBoundingBox" id="XMLID_3_" node-id="7" r="66.1823" rev="9" spreadMethod="pad"><stop offset="0.1426" stop-color="#3f65ff"/><stop offset="0.5441" stop-color="#fff695"/><stop offset="1" stop-color="#a0dcff"/></radialGradient><radialGradient cx="67.4323" cy="66.1415" fx="67.4323" fy="66.1415" gradientUnits="objectBoundingBox" id="XMLID_4_" node-id="12" r="55.962" rev="8" spreadMethod="pad"><stop offset="0.1426" stop-color="#3f65ff"/><stop offset="0.5441" stop-color="#fff695"/><stop offset="1" stop-color="#a0dcff"/></radialGradient><radialGradient cx="67.4323" cy="54.7126" fx="67.4323" fy="54.7126" gradientUnits="objectBoundingBox" id="XMLID_6_" node-id="22" r="42.5819" rev="7" spreadMethod="pad"><stop offset="0.1426" stop-color="#3f65ff"/><stop offset="0.5441" stop-color="#fff695"/><stop offset="1" stop-color="#a0dcff"/></radialGradient><radialGradient cx="66.5886" cy="41.7918" fx="66.5886" fy="41.7918" gradientUnits="objectBoundingBox" id="XMLID_8_" node-id="32" r="27.4585" rev="6" spreadMethod="pad"><stop offset="0.1426" stop-color="#3f65ff"/><stop offset="0.5441" stop-color="#fff695"/><stop offset="1" stop-color="#a0dcff"/></radialGradient><radialGradient cx="60.7277" cy="28.8834" fx="60.7277" fy="28.8834" gradientUnits="objectBoundingBox" id="XMLID_11_" node-id="42" r="12.3494" rev="5" spreadMethod="pad"><stop offset="0.5441" stop-color="#fff695"/><stop offset="1" stop-color="#a0dcff"/></radialGradient><radialGradient cx="34.2393" cy="44.131" fx="34.2393" fy="44.131" gradientUnits="objectBoundingBox" id="XMLID_13_" node-id="51" r="20.062" rev="4" spreadMethod="pad"><stop offset="0" stop-color="#3f65ff"/><stop offset="0.4934" stop-color="#fff65a"/><stop offset="0.7781" stop-color="#51dcff"/></radialGradient><radialGradient cx="52.0001" cy="44.4919" fx="52.0001" fy="44.4919" gradientUnits="objectBoundingBox" id="XMLID_18_" node-id="56" r="20.062" rev="3" spreadMethod="pad"><stop offset="0" stop-color="#3f65ff"/><stop offset="0.4934" stop-color="#fff65a"/><stop offset="0.7781" stop-color="#51dcff"/></radialGradient><radialGradient cx="39.5306" cy="43.8192" fx="39.5306" fy="43.8192" gradientUnits="objectBoundingBox" id="XMLID_19_" node-id="61" r="18.6651" rev="2" spreadMethod="pad"><stop offset="0" stop-color="#ffffff"/><stop offset="0.4934" stop-color="#fff65a"/><stop offset="0.7781" stop-color="#51dcff"/></radialGradient><radialGradient cx="46.7983" cy="44.2202" fx="46.7983" fy="44.2202" gradientUnits="objectBoundingBox" id="XMLID_20_" node-id="66" r="18.7206" rev="1" spreadMethod="pad"><stop offset="0" stop-color="#ffffff"/><stop offset="0.4934" stop-color="#fff65a"/><stop offset="0.7781" stop-color="#51dcff"/></radialGradient></defs><g node-id="200"><path d="M 71.40 32.23 C 72.69 37.26 60.12 44.80 43.34 49.09 C 26.55 53.38 11.91 52.78 10.62 47.75 C 9.34 42.73 21.91 35.18 38.69 30.90 C 55.48 26.61 70.12 27.21 71.40 32.23 Z" fill="#0f0f0f" fill-rule="nonzero" group-id="1" id="XMLID_5126_" node-id="3" stroke="#ffffff" stroke-linecap="butt" stroke-width="1.3448825" target-height="26.763191" target-width="63.344563" target-x="9.341839" target-y="26.611996"/></g><g node-id="201"><path d="M 22.97 53.07 C 15.82 53.07 10.45 51.59 9.54 48.03 C 7.85 41.42 23.16 33.71 38.42 29.81 C 46.64 27.71 54.62 26.70 60.91 26.95 C 67.72 27.23 71.73 28.96 72.49 31.95 C 73.26 34.95 70.57 38.39 64.72 41.90 C 59.33 45.14 51.84 48.08 43.62 50.18 C 36.56 51.98 29.11 53.07 22.97 53.07 Z M 58.93 29.16 C 53.18 29.16 46.18 30.14 38.97 31.98 C 21.70 36.39 10.74 43.69 11.71 47.48 C 12.68 51.27 25.79 52.41 43.06 48.00 C 51.08 45.96 58.36 43.11 63.57 39.98 C 68.27 37.15 70.79 34.36 70.32 32.51 L 70.32 32.51 C 69.85 30.66 66.29 29.42 60.82 29.19 C 60.20 29.17 59.58 29.16 58.93 29.16 Z" fill="#ffffff" fill-rule="nonzero" group-id="2" id="XMLID_5123_" node-id="5" stroke="#231815" stroke-linecap="butt" stroke-width="0.75" target-height="26.371002" target-width="65.406006" target-x="7.851" target-y="26.696"/></g><g node-id="202"><path d="M 67.34 44.04 C 67.34 49.47 65.66 54.50 62.79 58.65 C 58.16 65.35 50.41 69.73 41.66 69.73 C 32.90 69.73 25.16 65.35 20.52 58.65 C 17.65 54.50 15.97 49.47 15.97 44.04 C 15.97 41.79 16.26 39.61 16.81 37.52 C 17.88 33.45 19.92 29.79 22.65 26.77 C 27.35 21.61 34.13 18.37 41.66 18.37 C 49.19 18.37 55.97 21.61 60.66 26.78 C 63.40 29.80 65.43 33.46 66.50 37.52 C 67.05 39.60 67.34 41.79 67.34 44.04 Z" fill="url(#XMLID_3_)" fill-rule="nonzero" group-id="3" id="XMLID_5121_" node-id="11" stroke="#2eaeff" stroke-linecap="butt" stroke-width="1.3449" target-height="51.365" target-width="51.364" target-x="15.973" target-y="18.367"/><path d="M 67.34 44.04 C 67.34 45.49 67.21 46.91 66.99 48.30 C 66.35 52.10 64.89 55.61 62.79 58.65 C 56.52 60.65 49.31 61.80 41.66 61.80 C 33.99 61.80 26.79 60.65 20.52 58.65 C 18.38 55.57 16.91 51.99 16.30 48.12 C 16.08 46.79 15.97 45.43 15.97 44.04 C 15.97 29.87 27.47 18.37 41.66 18.37 C 55.84 18.37 67.34 29.87 67.34 44.04 Z" fill="url(#XMLID_4_)" fill-rule="nonzero" group-id="3" id="XMLID_5120_" node-id="21" stroke="url(#XMLID_5_)" stroke-linecap="butt" stroke-width="1.3449" target-height="43.43" target-width="51.364998" target-x="15.972" target-y="18.367"/><path d="M 67.34 44.04 C 67.34 45.49 67.21 46.91 66.99 48.30 C 59.93 50.26 51.29 51.41 41.97 51.41 C 32.36 51.41 23.47 50.19 16.30 48.12 C 16.08 46.79 15.97 45.43 15.97 44.04 C 15.97 29.87 27.47 18.37 41.66 18.37 C 55.84 18.37 67.34 29.87 67.34 44.04 Z" fill="url(#XMLID_6_)" fill-rule="nonzero" group-id="3" id="XMLID_5119_" node-id="31" stroke="url(#XMLID_7_)" stroke-linecap="butt" stroke-width="1.3449" target-height="33.041" target-width="51.365997" target-x="15.971001" target-y="18.367"/><path d="M 66.50 37.52 C 59.46 38.87 50.90 39.66 41.66 39.66 C 32.41 39.66 23.85 38.87 16.81 37.52 C 19.70 26.49 29.72 18.37 41.66 18.37 C 53.59 18.37 63.60 26.49 66.50 37.52 Z" fill="url(#XMLID_8_)" fill-rule="nonzero" group-id="3" id="XMLID_5118_" node-id="41" stroke="url(#XMLID_9_)" stroke-linecap="butt" stroke-width="1.3449" target-height="21.294998" target-width="49.683002" target-x="16.813" target-y="18.367"/><path d="M 60.66 26.78 C 55.55 27.49 48.91 27.93 41.66 27.93 C 34.41 27.93 27.76 27.49 22.65 26.77 C 27.35 21.61 34.13 18.37 41.66 18.37 C 49.19 18.37 55.97 21.61 60.66 26.78 Z" fill="url(#XMLID_11_)" fill-rule="nonzero" group-id="3" id="XMLID_5117_" node-id="49" stroke="url(#XMLID_12_)" stroke-linecap="butt" stroke-width="1.3449" target-height="9.559998" target-width="38.005005" target-x="22.652" target-y="18.367"/><path d="M 24.94 44.13 C 24.94 29.99 34.52 18.53 46.34 18.53" fill="none" group-id="3" id="XMLID_5116_" node-id="50" stroke="#ffffff" stroke-linecap="butt" stroke-width="1.1208" target-height="25.6" target-width="21.401995" target-x="24.939001" target-y="18.531"/><path d="M 45.22 69.73 C 33.40 69.73 23.82 58.27 23.82 44.13 C 23.82 29.99 33.40 18.53 45.22 18.53" fill="none" group-id="3" id="XMLID_5115_" node-id="55" stroke="url(#XMLID_13_)" stroke-linecap="butt" stroke-width="1.1208" target-height="51.200005" target-width="21.401995" target-x="23.818003" target-y="18.531"/><path d="M 41.02 70.09 C 52.84 70.09 62.42 58.63 62.42 44.49 C 62.42 30.35 52.84 18.89 41.02 18.89" fill="none" group-id="3" id="XMLID_5114_" node-id="60" stroke="url(#XMLID_18_)" stroke-linecap="butt" stroke-width="1.1208" target-height="51.200005" target-width="21.402" target-x="41.019" target-y="18.892"/><path d="M 44.11 69.25 C 39.36 69.25 35.51 57.87 35.51 43.82 C 35.51 29.77 39.36 18.38 44.11 18.38" fill="none" group-id="3" id="XMLID_5113_" node-id="65" stroke="url(#XMLID_19_)" stroke-linecap="butt" stroke-width="1.1208" target-height="50.871998" target-width="8.597" target-x="35.512" target-y="18.383"/><path d="M 42.97 69.86 C 46.89 69.86 50.07 58.38 50.07 44.22 C 50.07 30.06 46.89 18.59 42.97 18.59" fill="none" group-id="3" id="XMLID_5112_" node-id="70" stroke="url(#XMLID_20_)" stroke-linecap="butt" stroke-width="1.1208" target-height="51.272003" target-width="7.097" target-x="42.97" target-y="18.585"/><path d="M 67.34 44.04 C 67.34 49.47 65.66 54.50 62.79 58.65 C 58.16 65.35 50.41 69.73 41.66 69.73 C 32.90 69.73 25.16 65.35 20.52 58.65 C 17.65 54.50 15.97 49.47 15.97 44.04 C 15.97 41.79 16.26 39.61 16.81 37.52 C 17.88 33.45 19.92 29.79 22.65 26.77 C 27.35 21.61 34.13 18.37 41.66 18.37 C 49.19 18.37 55.97 21.61 60.66 26.78 C 63.40 29.80 65.43 33.46 66.50 37.52 C 67.05 39.60 67.34 41.79 67.34 44.04 Z" fill="none" group-id="3" id="XMLID_5111_" node-id="71" stroke="#0f0f0f" stroke-linecap="butt" stroke-width="1" target-height="51.365" target-width="51.364" target-x="15.973" target-y="18.367"/></g><g node-id="203"><path d="M 25.06 62.02 C 17.36 62.02 12.32 60.34 11.61 57.52 C 11.58 57.44 11.55 57.31 11.50 57.17 C 11.42 56.90 11.27 56.40 11.27 56.22 L 9.82 49.43 C 12.06 51.41 16.66 52.49 23.07 52.49 C 29.13 52.49 36.13 51.52 43.32 49.68 C 59.17 45.63 71.14 38.86 72.93 33.32 L 74.45 39.00 L 74.68 40.04 C 74.72 40.16 74.75 40.37 74.78 40.54 C 74.81 40.77 74.85 41.06 74.91 41.34 C 76.09 46.74 63.00 54.72 45.73 59.13 C 38.42 60.99 31.08 62.02 25.06 62.02 C 25.06 62.02 25.06 62.02 25.06 62.02 Z" fill="url(#XMLID_21_)" fill-rule="nonzero" group-id="4" id="XMLID_17_" node-id="77" stroke="none" target-height="28.698002" target-width="66.262" target-x="9.825" target-y="33.323"/><path d="M 72.83 34.42 L 74.08 39.06 L 74.31 40.12 L 74.31 40.16 L 74.35 40.23 C 74.36 40.28 74.39 40.46 74.41 40.60 C 74.44 40.84 74.48 41.13 74.54 41.42 C 75.06 43.77 72.39 46.95 67.24 50.14 C 61.77 53.54 54.10 56.60 45.64 58.76 C 38.36 60.62 31.05 61.65 25.06 61.65 C 17.54 61.65 12.64 60.07 11.97 57.43 C 11.95 57.34 11.91 57.21 11.86 57.07 C 11.80 56.86 11.65 56.37 11.65 56.23 L 11.65 56.14 L 11.63 56.05 L 10.40 50.34 C 12.92 51.98 17.28 52.87 23.07 52.87 C 29.16 52.87 36.19 51.89 43.41 50.05 C 58.42 46.21 69.95 39.90 72.83 34.42 M 72.70 31.03 L 72.66 31.04 C 72.67 31.05 72.68 31.07 72.68 31.09 C 74.10 36.64 60.91 44.80 43.23 49.32 C 35.81 51.21 28.81 52.11 23.07 52.11 C 15.86 52.11 10.66 50.69 9.14 48.03 L 10.90 56.20 C 10.89 56.53 11.16 57.30 11.24 57.62 C 12.05 60.76 17.38 62.40 25.06 62.40 C 30.93 62.40 38.17 61.45 45.83 59.49 C 63.51 54.97 76.50 46.86 75.28 41.26 C 75.15 40.68 75.13 40.13 75.05 39.96 L 74.81 38.90 L 72.70 31.03 L 72.70 31.03 Z" fill="#0f0f0f" fill-rule="nonzero" group-id="4" id="XMLID_14_" node-id="78" stroke="none" target-height="31.37" target-width="67.355" target-x="9.142" target-y="31.026"/></g><path d="M 39.26 37.44 C 39.26 38.10 39.00 38.73 38.53 39.19 C 38.07 39.66 37.44 39.92 36.78 39.92 C 36.12 39.92 35.49 39.66 35.02 39.19 C 34.55 38.73 34.29 38.10 34.29 37.44 C 34.29 36.78 34.55 36.14 35.02 35.68 C 35.49 35.21 36.12 34.95 36.78 34.95 C 37.44 34.95 38.07 35.21 38.53 35.68 C 39.00 36.14 39.26 36.78 39.26 37.44 Z" fill="#000000" fill-rule="nonzero" id="XMLID_5108_" node-id="79" stroke="none" target-height="4.970001" target-width="4.970001" target-x="34.292" target-y="34.951"/><path d="M 54.59 37.34 C 54.59 38.00 54.33 38.63 53.87 39.10 C 53.40 39.56 52.77 39.83 52.11 39.83 C 51.45 39.83 50.82 39.56 50.35 39.10 C 49.89 38.63 49.62 38.00 49.62 37.34 C 49.62 36.68 49.89 36.05 50.35 35.58 C 50.82 35.12 51.45 34.85 52.11 34.85 C 52.77 34.85 53.40 35.12 53.87 35.58 C 54.33 36.05 54.59 36.68 54.59 37.34 Z" fill="#000000" fill-rule="nonzero" id="XMLID_5107_" node-id="80" stroke="none" target-height="4.970001" target-width="4.970001" target-x="49.625" target-y="34.855"/><path d="M 48.32 41.37 C 48.32 42.62 46.88 43.63 45.10 43.63 C 43.32 43.63 41.87 42.62 41.87 41.37" fill="#000000" fill-rule="nonzero" id="XMLID_5106_" node-id="81" stroke="none" target-height="2.2659988" target-width="6.449997" target-x="41.872" target-y="41.365"/></svg>